<?xml version="1.0" encoding="utf-8"?>
<!-- Generator: Adobe Illustrator 18.1.1, SVG Export Plug-In . SVG Version: 6.00 Build 0)  -->
<!DOCTYPE svg PUBLIC "-//W3C//DTD SVG 1.1//EN" "http://www.w3.org/Graphics/SVG/1.1/DTD/svg11.dtd">
<svg version="1.1" id="Capa_1" xmlns="http://www.w3.org/2000/svg" xmlns:xlink="http://www.w3.org/1999/xlink" x="0px" y="0px"
	 viewBox="0 0 419.5 595.3" enable-background="new 0 0 419.5 595.3" xml:space="preserve">
<g>
	<path fill="#006C68" d="M252,360.5h-84.5v-38.5H0V437c0,10.7,8.7,19.4,19.4,19.4H400c10.8,0,19.5-8.7,19.5-19.4V321.9H252V360.5z"
		/>
	<path fill="#006C68" d="M400,187.4H269.5c0,0,0-34.9,0-42.2c0-7.2-4.7-6.4-4.7-6.4H143.2c0,0-5.1,0.6-5.1,6.6c0,6,0,42,0,42H19.4
		C8.7,187.4,0,196.1,0,206.9v86.7h419.5v-86.7C419.5,196.1,410.8,187.4,400,187.4z M157.9,187.4v-33.9h91.7v33.9H157.9z"/>
	<rect x="182" y="322" fill="#006C68" width="55.6" height="25.3"/>
</g>
</svg>
