<?xml version="1.0" encoding="iso-8859-1"?>
<!-- Generator: Adobe Illustrator 18.1.1, SVG Export Plug-In . SVG Version: 6.00 Build 0)  -->
<svg version="1.1" id="Capa_1" xmlns="http://www.w3.org/2000/svg" xmlns:xlink="http://www.w3.org/1999/xlink" x="0px" y="0px"
	 viewBox="0 0 36.021 36.021" style="enable-background:new 0 0 36.021 36.021;" xml:space="preserve">
<g>
	<path d="M21.64,23.406h-7.259v-3.309H0v9.883c0,0.922,0.747,1.668,1.669,1.668h32.679c0.925,0,1.673-0.746,1.673-1.668v-9.883
		H21.64V23.406z"/>
	<path d="M34.348,8.547H23.142c0,0,0-3,0-3.625c0-0.621-0.401-0.547-0.401-0.547h-10.45c0,0-0.442,0.053-0.442,0.566
		s0,3.605,0,3.605H1.669C0.747,8.547,0,9.293,0,10.219v7.445h36.021v-7.445C36.021,9.293,35.272,8.547,34.348,8.547z M13.56,8.547
		v-2.91h7.874v2.91H13.56z"/>
	<rect x="15.627" y="20.098" width="4.77" height="2.168"/>
	<g>
	</g>
	<g>
	</g>
	<g>
	</g>
	<g>
	</g>
	<g>
	</g>
	<g>
	</g>
	<g>
	</g>
	<g>
	</g>
	<g>
	</g>
	<g>
	</g>
	<g>
	</g>
	<g>
	</g>
	<g>
	</g>
	<g>
	</g>
	<g>
	</g>
</g>
<g>
</g>
<g>
</g>
<g>
</g>
<g>
</g>
<g>
</g>
<g>
</g>
<g>
</g>
<g>
</g>
<g>
</g>
<g>
</g>
<g>
</g>
<g>
</g>
<g>
</g>
<g>
</g>
<g>
</g>
</svg>
