<?xml version="1.0" encoding="utf-8"?>
<!-- Generator: Adobe Illustrator 18.1.1, SVG Export Plug-In . SVG Version: 6.00 Build 0)  -->
<!DOCTYPE svg PUBLIC "-//W3C//DTD SVG 1.1//EN" "http://www.w3.org/Graphics/SVG/1.1/DTD/svg11.dtd">
<svg version="1.1" id="Capa_1" xmlns="http://www.w3.org/2000/svg" xmlns:xlink="http://www.w3.org/1999/xlink" x="0px" y="0px"
	 viewBox="0 0 419.5 595.3" enable-background="new 0 0 419.5 595.3" xml:space="preserve">
<g id="Group">
	<path fill="#006C68" d="M209.8,297.8c36.8,0,65.4-38.1,65.4-77.6v-12.4c0-39.5-28.6-67.5-65.4-67.5c-36.8,0-65.4,28-65.4,67.5v12.4
		C144.4,259.7,173,297.8,209.8,297.8z M78.8,310.6c10.5,0,39.3-13.6,39.3-42v-21c0-28.3-20.8-42-39.3-42c-17.9,0-39.3,13.6-39.3,42
		v21C39.5,296.9,68.8,310.6,78.8,310.6z M314.2,363c0-0.2-0.1-0.4-0.1-0.6c-0.3-2.5-0.8-4.9-1.4-7.3c0,0,0,0,0-0.1
		c-1.4-5-3.7-9.9-7.1-14.6v0c-5.7-7.9-14.2-15.9-28.1-23.7c-7.4-4.1-10.6-6-15.1-6c-7.2,0-13.5,5.6-24.2,15.4h0l-9.7,8.9
		c-0.3,0.3-10.8,15.1-18.6,15.1s-18.2-14.7-18.6-15.1l-9.7-8.9h0c-10.6-9.8-16.9-15.4-24.2-15.4c-4.5,0-8.6,1.9-15.1,6
		c-13.5,8.5-22.5,15.8-28.1,23.7l0,0c0,0,0,0.1,0,0.1c-3.4,4.7-5.7,9.5-7.1,14.5c0,0,0,0.1-0.1,0.1c-0.6,2.3-1.1,4.7-1.4,7.2
		c0,0.2-0.1,0.4-0.1,0.7c-0.3,2.6-0.4,5.3-0.4,8c0,0.3,0,57.4,0,57.7c0,18.6,7,26.2,26.2,26.2h157.3c19.4,0,26.2-7.2,26.2-26.2
		c0-0.3,0-57.4,0-57.7C314.6,368.3,314.5,365.6,314.2,363z M341,310.6c10.5,0,39.3-13.6,39.3-42v-21c0-28.3-20.8-42-39.3-42
		c-17.9,0-39.3,13.6-39.3,42v21C301.7,296.9,331,310.6,341,310.6z M29.8,339C5.4,352.9,0,375,0,389.4c0,0.2,0,26,0,26.2
		c0,19,6.4,26.2,26.2,26.2h52.4c0,0,0-55.7,0-78.7l-13.1-13.1C51.7,337.8,40,333.2,29.8,339z M78.7,363.2
		C79,363.4,78.7,357,78.7,363.2L78.7,363.2z M419.5,389.4c0-14.4-5.4-36.5-29.8-50.4c-10.2-5.8-21.9-1.1-35.7,11.1l-13.1,13.1
		c0,22.9,0,78.7,0,78.7h52.4c19.8,0,26.2-7.2,26.2-26.2C419.5,415.4,419.5,389.6,419.5,389.4z M340.9,363.2
		C340.9,357,340.6,363.4,340.9,363.2L340.9,363.2z"/>
</g>
</svg>
