<?xml version="1.0" encoding="utf-8"?>
<!-- Generator: Adobe Illustrator 18.1.1, SVG Export Plug-In . SVG Version: 6.00 Build 0)  -->
<!DOCTYPE svg PUBLIC "-//W3C//DTD SVG 1.1//EN" "http://www.w3.org/Graphics/SVG/1.1/DTD/svg11.dtd">
<svg version="1.1" id="Capa_1" xmlns="http://www.w3.org/2000/svg" xmlns:xlink="http://www.w3.org/1999/xlink" x="0px" y="0px"
	 viewBox="-190 278.8 38.4 38.4" enable-background="new -190 278.8 38.4 38.4" xml:space="preserve">
<g>
	<path fill="#006C68" d="M-153.2,288.9h-2.7v-3.1c0-0.9-0.7-1.7-1.7-1.7h-30.7c-0.9,0-1.7,0.7-1.7,1.7v24.5c0,0.9,0.7,1.7,1.7,1.7
		h30.7c0.1,0,0.2,0,0.3,0c0.1,0,0.2,0,0.3,0h3.7c0.9,0,1.7-0.7,1.7-1.7v-19.7C-151.6,289.6-152.3,288.9-153.2,288.9z M-159.3,308.6
		h-27.4v-21.1h27.4V308.6z M-185.1,291.8c0-0.9,0.7-1.7,1.7-1.7h21c0.9,0,1.7,0.7,1.7,1.7c0,0.9-0.7,1.7-1.7,1.7h-21
		C-184.4,293.5-185.1,292.7-185.1,291.8z M-174.1,296.8c0,0.6-0.5,1.1-1.1,1.1h-8.2c-0.6,0-1.1-0.5-1.1-1.1c0-0.6,0.5-1.1,1.1-1.1
		h8.2C-174.6,295.7-174.1,296.2-174.1,296.8z M-174.1,300.6c0,0.6-0.5,1.1-1.1,1.1h-8.2c-0.6,0-1.1-0.5-1.1-1.1
		c0-0.6,0.5-1.1,1.1-1.1h8.2C-174.6,299.5-174.1,300-174.1,300.6z M-174.1,304.3c0,0.6-0.5,1.1-1.1,1.1h-8.2c-0.6,0-1.1-0.5-1.1-1.1
		c0-0.6,0.5-1.1,1.1-1.1h8.2C-174.6,303.2-174.1,303.7-174.1,304.3z M-161.4,296.8c0,0.6-0.5,1.1-1.1,1.1h-8.2
		c-0.6,0-1.1-0.5-1.1-1.1c0-0.6,0.5-1.1,1.1-1.1h8.2C-161.9,295.7-161.4,296.2-161.4,296.8z M-161.4,300.6c0,0.6-0.5,1.1-1.1,1.1
		h-8.2c-0.6,0-1.1-0.5-1.1-1.1c0-0.6,0.5-1.1,1.1-1.1h8.2C-161.9,299.5-161.4,300-161.4,300.6z M-161.4,304.3c0,0.6-0.5,1.1-1.1,1.1
		h-8.2c-0.6,0-1.1-0.5-1.1-1.1c0-0.6,0.5-1.1,1.1-1.1h8.2C-161.9,303.2-161.4,303.7-161.4,304.3z"/>
</g>
</svg>
