<?xml version="1.0" encoding="utf-8"?>
<!-- Generator: Adobe Illustrator 18.1.1, SVG Export Plug-In . SVG Version: 6.00 Build 0)  -->
<!DOCTYPE svg PUBLIC "-//W3C//DTD SVG 1.1//EN" "http://www.w3.org/Graphics/SVG/1.1/DTD/svg11.dtd">
<svg version="1.1" id="Capa_1" xmlns="http://www.w3.org/2000/svg" xmlns:xlink="http://www.w3.org/1999/xlink" x="0px" y="0px"
	 viewBox="11 77.7 441.6 441.6" enable-background="new 11 77.7 441.6 441.6" xml:space="preserve">
<g>
	<g>
		<path fill="#006C68" d="M418,282.7v5.1c0,46.3-37.7,84-84,84H212.1v10.5c0,22.1,17.9,40.1,40.1,40.1h101.9l46.2,45.4
			c1.6,1.6,3.8,2.5,6,2.5c1.1,0,2.3-0.2,3.3-0.7c3.2-1.3,5.3-4.5,5.3-8v-39.3c21-1.2,37.7-18.7,37.7-40v-59.8
			C452.6,302.1,437.5,285.4,418,282.7z"/>
		<path fill="#006C68" d="M394.8,286.1v-95.4c0-35.3-28.6-64-64-64H75c-35.3,0-64,28.6-64,64v95.4c0,34,26.6,61.9,60.1,63.8v62.8
			c0,5.5,3.3,10.5,8.4,12.7c1.7,0.7,3.5,1.1,5.3,1.1c3.5,0,7-1.4,9.6-4l73.6-72.5h162.7C366.2,350.1,394.8,321.5,394.8,286.1z"/>
	</g>
</g>
</svg>
